<?xml version="1.0" standalone="no"?><!DOCTYPE svg PUBLIC "-//W3C//DTD SVG 1.1//EN" "http://www.w3.org/Graphics/SVG/1.1/DTD/svg11.dtd"><svg t="1596855026919" class="icon" viewBox="0 0 1024 1024" version="1.1" xmlns="http://www.w3.org/2000/svg" p-id="5854" xmlns:xlink="http://www.w3.org/1999/xlink" width="16" height="16"><defs><style type="text/css"></style></defs><path d="M30.6 454.5c0-41.6 33.8-75.4 75.4-75.4h130.7c41.6 0 75.4 33.7 75.4 75.4V947c0 41.6-33.8 75.4-75.4 75.4H106c-41.6 0-75.4-33.7-75.4-75.4V454.5z m140.8 447.3c33.3 0 60.3-27 60.3-60.3s-27-60.3-60.3-60.3-60.3 27-60.3 60.3c-0.1 33.3 26.9 60.3 60.3 60.3z m0 0" fill="#46C998" p-id="5855"></path><path d="M111 841.5c0 33.3 27 60.3 60.3 60.3s60.3-27 60.3-60.3-27-60.3-60.3-60.3-60.3 27-60.3 60.3z m0 0" fill="#149661" p-id="5856"></path><path d="M621.9 379.1h295.7c41.7 0 75.4 33.8 75.4 75.4v10.1c0 41.6-33.7 75.4-75.4 75.4h-485 485c41.6 0 75.4 33.8 75.4 75.4v10.1c0 41.6-33.7 75.4-75.4 75.4h-485 443.5c41.6 0 75.4 33.8 75.4 75.4v10.1c0 41.6-33.8 75.4-75.4 75.4H432.7h404.6c41.6 0 75.4 33.8 75.4 75.4v9.8c0 41.6-33.8 75.4-75.4 75.4H387.4c-41.6 0-75.4-33.8-75.4-75.4V460.5c-1.9-22.1 5.8-44 21.2-60 15.4-16 104.3-102.9 156.3-182.8 52.1-79.9 52.1-110.9 75.9-183.9 23.9-72.9 114.7-16 131.1 65.8 16.5 81.8 0.3 149-39.4 229.5-7.6 15.8-20.1 32.8-35.2 50z m0 0" fill="#FFCC80" p-id="5857"></path></svg>