<?xml version="1.0" standalone="no"?><!DOCTYPE svg PUBLIC "-//W3C//DTD SVG 1.1//EN" "http://www.w3.org/Graphics/SVG/1.1/DTD/svg11.dtd"><svg t="1596821976332" class="icon" viewBox="0 0 1073 1024" version="1.1" xmlns="http://www.w3.org/2000/svg" p-id="16125" xmlns:xlink="http://www.w3.org/1999/xlink" width="209.5703125" height="200"><defs><style type="text/css"></style></defs><path d="M972.997162 403.097311h-231.161547a558.848488 558.848488 0 0 0 29.560429-252.625647A157.79014 157.79014 0 0 0 663.898989 8.016627a115.366385 115.366385 0 0 0-112.894608 16.116992c-29.560429 29.560429-43.003867 88.70651-59.120858 153.199698a415.107118 415.107118 0 0 1-37.631536 115.568162c-45.702643 75.263072-147.827368 107.522278-155.898475 110.221054h-86.007733a25.398765 25.398765 0 0 0-26.886875 26.861653v567.146595a27.567875 27.567875 0 0 0 26.886875 26.861652l96.752394-2.673554c72.589518 0 397.804683-2.698776 494.557077-2.698776 255.349645 0 268.793083-502.628184 268.793083-507.975292a110.548943 110.548943 0 0 0-99.451171-107.522278z" p-id="16126" fill="#d81e06"></path><path d="M0 403.122533m26.886875 0l80.61018 0q26.886875 0 26.886875 26.886875l0 564.422596q0 26.886875-26.886875 26.886875l-80.61018 0q-26.886875 0-26.886875-26.886875l0-564.422596q0-26.886875 26.886875-26.886875Z" p-id="16127" fill="#d81e06"></path></svg>