<?xml version="1.0" standalone="no"?><!DOCTYPE svg PUBLIC "-//W3C//DTD SVG 1.1//EN" "http://www.w3.org/Graphics/SVG/1.1/DTD/svg11.dtd"><svg t="1596821672250" class="icon" viewBox="0 0 1024 1024" version="1.1" xmlns="http://www.w3.org/2000/svg" p-id="3937" id="mx_n_1596821672251" xmlns:xlink="http://www.w3.org/1999/xlink" width="200" height="200"><defs><style type="text/css"></style></defs><path d="M521.485 55.507l65.665-42.318 52.531 57.884 74.421-23.833 35.995 69.556 77.825-3.891 16.538 76.367 76.367 16.538-3.891 77.825 69.556 35.995-23.833 74.421 57.884 52.531-42.318 65.665 42.318 65.665-57.884 52.531 23.833 74.421-69.556 35.506 3.891 78.313-76.367 16.052-16.538 76.367-77.825-3.891-35.995 70.043-74.421-24.32-52.531 57.884-65.665-42.318-65.665 42.318-52.531-57.884-74.421 24.32-35.506-70.043-77.825 3.891-16.538-76.367-76.367-16.052 3.891-78.313-70.043-35.506 24.32-74.421-57.884-52.531 42.318-65.665-42.318-65.665 57.884-52.531-24.32-74.421 70.043-35.995-3.891-77.825 76.367-16.538 16.538-76.367 77.825 3.891 35.506-69.556 74.421 23.833 52.531-57.884z" fill="#8FC31F" p-id="3938"></path><path d="M312.815 506.892l90.471-47.667 14.105 27.238-9.243 35.506 51.074-26.754 47.667 90.471-94.849 50.1c0 41.831-19.456 87.553-57.884 137.166-10.702-4.865-23.833-10.213-39.886-15.079 34.533-38.913 53.991-72.475 58.368-101.659l-26.267 13.619 5.351 10.213-34.533 17.998-37.94-71.987c-1.946 1.946-3.404 4.865-4.375 9.243-0.973 1.458-1.946 2.918-1.946 3.891-10.213-7.783-21.402-15.565-33.075-22.374 19.941-36.481 31.13-74.421 34.533-114.306l39.886-18.483c0.485 8.268 0 16.052-1.458 22.862zM298.711 579.366l68.583-36.481 7.783-33.561-67.611 35.995c-0.485 0.973-0.485 2.431-0.485 4.375-1.946 9.243-4.865 18.971-8.268 29.669zM360.484 582.773l-46.694 24.809 17.998 34.533 39.399-20.916c-2.431-12.159-5.838-24.809-10.702-38.427zM404.748 603.201l53.019-28.212-17.998-34.533-46.694 24.809c0.485 2.431 1.458 6.322 3.404 11.674 4.375 12.159 7.297 20.916 8.268 26.267zM432.471 681.027l-18.483-35.506 32.102-17.025 13.619 26.267c5.351 10.213 13.132 13.132 22.862 7.783l19.941-10.213c12.647-6.811 17.025-14.105 13.619-21.887-0.485-1.458-2.918-5.838-6.322-14.105-3.404-7.783-6.322-14.594-9.243-20.429 7.297-0.973 17.025-3.404 28.699-5.838 4.865-0.973 8.756-1.458 11.188-1.946 0.485 0.485 0.973 1.946 1.458 2.918 6.322 18.971 10.213 32.102 12.159 40.372 4.375 17.025-6.322 32.588-32.588 46.694l-37.452 19.941c-22.374 11.188-39.399 5.838-51.558-17.025zM644.545 563.317l-31.13 16.538-21.887-41.831c-1.946 1.946-3.891 4.375-6.811 7.297-5.351 6.322-9.728 11.674-13.132 15.079-7.783-6.322-17.51-12.647-28.212-18.483 25.293-22.862 40.372-43.777 46.209-61.772l-49.129 25.78-21.887-64.205 57.396-30.158c-2.431-4.375-4.375-8.756-7.297-13.619l-65.665 34.533-12.159-22.862 65.665-34.533-8.756-16.538 31.13-16.538 8.756 16.538 31.13-16.538-8.756-16.538 30.158-16.052 8.756 16.538 58.368-30.642 31.13 59.342-58.368 30.642 7.297 13.619 67.611-35.995c7.297 14.105 12.647 26.267 16.538 36.481 7.297 15.565 3.404 28.212-11.674 38.427l23.833 44.748-31.13 16.538-20.429-38.427-110.414 58.368 22.862 44.261zM585.691 435.877l-29.184 15.565 3.891 15.079 29.184-15.565c0-1.946-0.485-4.375-1.946-8.268-0.485-2.918-1.458-5.351-1.946-6.811zM664.975 505.92l31.13-16.538c2.918 5.351 5.838 13.619 8.756 24.809-0.485-0.485-0.485 0 0 2.431 20.429-4.865 53.991-11.674 100.686-21.402 8.268-2.431 14.594-4.375 18.971-4.865l-1.458 35.506c-33.561 3.404-72.961 10.213-117.71 19.456-6.322 25.293-35.022 54.476-87.068 87.553-7.783-7.783-16.538-14.594-27.238-21.402 38.427-22.862 62.259-41.345 71.987-55.451 10.702-14.105 11.188-31.13 1.946-50.1zM605.633 395.994l32.102-17.025-7.297-13.619-31.13 16.538c0.485 0.485 0.973 1.946 1.458 2.918 1.458 4.375 2.918 7.783 4.865 11.188zM620.714 434.906l36.481-19.456-7.297-13.619-33.561 17.51c0.973 1.458 1.458 3.891 2.431 6.811 1.458 3.891 1.946 6.811 1.946 8.756zM720.425 429.068c1.946-0.973 4.865-2.431 8.268-4.375 4.375-1.458 7.297-2.431 8.756-3.404 5.351-2.918 5.838-9.243 0.485-18.971l-38.427 20.429 9.728 18.971-30.158 16.052-9.728-18.971-44.748 23.833c-0.973 13.619-2.918 24.809-6.811 32.588l109.442-57.884c-2.918-2.918-5.351-5.838-6.811-8.268zM668.379 362.916l29.184-15.565-7.297-13.619-29.184 15.565 7.297 13.619z" fill="#FFFFFF" p-id="3939"></path></svg>