<?xml version="1.0" standalone="no"?><!DOCTYPE svg PUBLIC "-//W3C//DTD SVG 1.1//EN" "http://www.w3.org/Graphics/SVG/1.1/DTD/svg11.dtd"><svg t="1596821814717" class="icon" viewBox="0 0 1024 1024" version="1.1" xmlns="http://www.w3.org/2000/svg" p-id="8631" xmlns:xlink="http://www.w3.org/1999/xlink" width="200" height="200"><defs><style type="text/css"></style></defs><path d="M944.512 256.810667l-149.333333-42.666667a23.082667 23.082667 0 0 0-9.685334-0.469333l-704 128a21.333333 21.333333 0 0 0-17.493333 20.992v512a21.333333 21.333333 0 0 0 17.536 20.992l704 128a22.442667 22.442667 0 0 0 9.642667-0.469334l149.333333-42.666666a21.376 21.376 0 0 0 15.488-20.522667v-682.666667a21.376 21.376 0 0 0-15.488-20.522666zM405.333333 741.802667l-128-14.208V640h128v101.802667zM405.333333 597.333333h-128v-87.552l128-14.208V597.333333z m213.333334 168.149334l-170.666667-18.986667V640h170.666667v125.482667z m0-168.149334h-170.666667v-106.538666l170.666667-18.986667V597.333333zM298.666667 256a21.333333 21.333333 0 0 0 21.333333-21.333333v-85.333334C320 104.789333 360.576 42.666667 426.666667 42.666667c62.805333 0 106.666667 26.325333 106.666666 64v85.333333a21.333333 21.333333 0 0 0 42.666667 0v-85.333333C576 43.861333 514.602667 0 426.666667 0 338.645333 0 277.333333 78.72 277.333333 149.333333v85.333334A21.333333 21.333333 0 0 0 298.666667 256z" p-id="8632" fill="#1296db"></path><path d="M458.368 88.362667C407.893333 118.656 405.333333 197.76 405.333333 213.333333a21.333333 21.333333 0 0 0 42.666667 0c0-33.237333 10.112-75.050667 32.298667-88.362666a21.333333 21.333333 0 0 0-21.930667-36.608zM613.717333 106.069333c4.48 9.216 6.826667 37.589333 5.034667 63.061334a21.333333 21.333333 0 0 0 19.712 22.826666L640 192a21.333333 21.333333 0 0 0 21.248-19.754667c1.621333-21.845333 3.114667-74.965333-17.365333-96.938666A34.133333 34.133333 0 0 0 618.666667 64a21.333333 21.333333 0 0 0-4.949334 42.069333z" p-id="8633" fill="#1296db"></path></svg>