<?xml version="1.0" standalone="no"?><!DOCTYPE svg PUBLIC "-//W3C//DTD SVG 1.1//EN" "http://www.w3.org/Graphics/SVG/1.1/DTD/svg11.dtd"><svg t="1596821540721" class="icon" viewBox="0 0 1024 1024" version="1.1" xmlns="http://www.w3.org/2000/svg" p-id="2603" xmlns:xlink="http://www.w3.org/1999/xlink" width="200" height="200"><defs><style type="text/css"></style></defs><path d="M512 30.72C228.693333 30.72 0 259.413333 0 542.72 0 723.626667 92.16 887.466667 245.76 983.04c3.413333 3.413333 10.24 3.413333 13.653333 3.413333s6.826667-3.413333 10.24-6.826666l160.426667-262.826667c3.413333-6.826667 3.413333-17.066667-6.826667-23.893333-51.2-30.72-81.92-85.333333-81.92-146.773334 0-95.573333 75.093333-170.666667 170.666667-170.666666s170.666667 75.093333 170.666667 170.666666c0 64.853333-37.546667 122.88-92.16 153.6l-10.24 10.24c0 3.413333 0 10.24 3.413333 13.653334l160.426667 262.826666c3.413333 6.826667 10.24 6.826667 13.653333 6.826667s6.826667 0 6.826667-3.413333c160.426667-92.16 259.413333-262.826667 259.413333-443.733334C1024 262.826667 795.306667 30.72 512 30.72z" p-id="2604" fill="#0cf441"></path></svg>