<?xml version="1.0" standalone="no"?><!DOCTYPE svg PUBLIC "-//W3C//DTD SVG 1.1//EN" "http://www.w3.org/Graphics/SVG/1.1/DTD/svg11.dtd"><svg t="1596854914752" class="icon" viewBox="0 0 1024 1024" version="1.1" xmlns="http://www.w3.org/2000/svg" p-id="3619" xmlns:xlink="http://www.w3.org/1999/xlink" width="16" height="16"><defs><style type="text/css"></style></defs><path d="M512 31.872c-282.325333 0-512 229.674667-512 512 0 183.893333 99.712 354.602667 260.224 445.482667a21.504 21.504 0 0 0 29.098667-8.064l157.653333-278.997334a21.333333 21.333333 0 0 0-8.021333-29.056A149.418667 149.418667 0 0 1 362.666667 543.872c0-82.346667 66.986667-149.333333 149.333333-149.333333s149.333333 66.986667 149.333333 149.333333a149.461333 149.461333 0 0 1-76.245333 129.365333 21.333333 21.333333 0 0 0-8.021333 29.056l157.653333 278.997334a21.504 21.504 0 0 0 29.098667 8.064A513.194667 513.194667 0 0 0 1024 543.872c0-282.325333-229.674667-512-512-512z" p-id="3620" fill="#1afa29"></path></svg>