<?xml version="1.0" standalone="no"?><!DOCTYPE svg PUBLIC "-//W3C//DTD SVG 1.1//EN" "http://www.w3.org/Graphics/SVG/1.1/DTD/svg11.dtd"><svg t="1596855151238" class="icon" viewBox="0 0 1024 1024" version="1.1" xmlns="http://www.w3.org/2000/svg" p-id="7982" xmlns:xlink="http://www.w3.org/1999/xlink" width="16" height="16"><defs><style type="text/css"></style></defs><path d="M512 512m-512 0a512 512 0 1 0 1024 0 512 512 0 1 0-1024 0Z" fill="#FF0000" p-id="7983"></path><path d="M518.4 748.8m-57.6 0a57.6 57.6 0 1 0 115.2 0 57.6 57.6 0 1 0-115.2 0Z" fill="#FFFFFF" p-id="7984"></path><path d="M460.8 166.4m51.2 0l0 0q51.2 0 51.2 51.2l0 358.4q0 51.2-51.2 51.2l0 0q-51.2 0-51.2-51.2l0-358.4q0-51.2 51.2-51.2Z" fill="#FFFFFF" p-id="7985"></path></svg>